<?xml version="1.0" encoding="utf-8"?>
<!-- Generator: Adobe Illustrator 22.1.0, SVG Export Plug-In . SVG Version: 6.00 Build 0)  -->
<svg version="1.1" id="Calque_1" xmlns="http://www.w3.org/2000/svg" xmlns:xlink="http://www.w3.org/1999/xlink" x="0px" y="0px"
	 viewBox="0 0 159 254" style="enable-background:new 0 0 159 254;" xml:space="preserve">
<style type="text/css">
	.st0{fill:none;}
	.st1{fill:#242122;}
	.st2{fill:#F05B26;}
</style>
<symbol  id="logo" viewBox="-300.1 -198.1 600.2 396.2">
	<g>
		<path class="st0" d="M-0.3-198c-98.5,0-197,0-295.5-0.1c-3.8,0-4.3,1-4.3,4.4c0.1,129.2,0.1,258.4,0,387.5c0,3.8,1,4.3,4.4,4.3
			c197.2-0.1,394.3-0.1,591.5,0c3.8,0,4.3-1,4.3-4.4c-0.1-129.2-0.1-258.3,0-387.5c0-3.8-1-4.3-4.4-4.3C197-198,98.3-198-0.3-198z
			 M-32.9,96.5c-1.7,0.9-2.5-0.3-3.4-0.9c-5.9-4.1-10.1-9.8-12.7-16.4c-10.5-26.8-6.5-52.3,8-76.5c4.8-8,11.4-14.4,19.6-18.9
			C-9.2-23,3.4-25,16.1-17.6c2.8,1.6,4.2,1.1,6.4-0.6c8.7-6.8,18.3-12.2,28.6-16.1c5.2-1.9,5.4-1.9,4.7,3.4
			C50.9,10.1,29.9,40-6.7,59c-2.4,1.2-3.4,1.8-3.9-1.8c-1.5-10.2-10-16.9-19.5-16.1C-39.8,41.9-47,49.7-47,60
			C-47.2,74.1-43.8,86.7-32.9,96.5z M8.8-106.6c22.1,7.1,33,28.9,24.6,48.9c-4.2,10-9.1,19.6-13.6,29.4c-1.1,2.4-2.2,2.2-4.2,1.3
			c-7-3.2-14.5-4.1-22-2.8c-4.2,0.7-4.6-0.7-4.5-4.3c0.2-11.3,0.1-22.6,0.1-34c0-4.6,0.6-9.3-3-13.6c5.4-0.7,9.8,0.4,13.7,3.2
			c1.3,0.9,2.2,1.9,3.3-0.5C7.2-87.8,12.9-96.1,8.8-106.6z M55.7,61.9c2,26.4-13.3,43.1-38.4,43.2c-7.6,0-15.3,0.1-22.9,0
			C-17.1,105-25.1,97.4-25,86.8c0.1-10.7,8-18,19.6-18c12.6,0,25.3-0.1,37.9,0C40.7,69,48.8,68.9,55.7,61.9z M-33,88.1
			c-3.2-0.5-5-2.2-4.9-5.3c0.1-3,2-4.9,5.2-4.8s4.9,2.1,4.8,5.2C-27.9,86.3-30,87.8-33,88.1z"/>
		<path class="st1" d="M-32.9,96.5C-43.7,86.7-47.2,74-47.1,60.1C-47,49.8-39.9,42-30.2,41.2c9.6-0.8,18.1,5.9,19.5,16.1
			c0.5,3.7,1.6,3.1,3.9,1.8c36.6-19,57.5-48.9,62.5-89.9c0.6-5.3,0.5-5.4-4.7-3.4C40.6-30.3,31.1-25,22.4-18.1
			c-2.2,1.7-3.6,2.2-6.4,0.6c-12.7-7.4-25.3-5.4-37.5,1.4c-8.2,4.5-14.8,10.9-19.6,18.9c-14.5,24.2-18.5,49.7-8,76.5
			c2.6,6.6,6.7,12.2,12.7,16.4C-35.4,96.3-34.7,97.4-32.9,96.5z"/>
		<path class="st1" d="M8.8-106.6C12.9-96,7.2-87.7,3.3-79c-1,2.4-2,1.4-3.3,0.5c-3.9-2.8-8.3-3.9-13.7-3.2c3.5,4.3,3,9,3,13.6
			c0,11.3,0.1,22.6-0.1,34c-0.1,3.6,0.4,5,4.5,4.3c7.5-1.3,15-0.4,22,2.8c2,0.9,3.1,1.2,4.2-1.3c4.4-9.9,9.4-19.5,13.6-29.4
			C41.8-77.8,30.9-99.5,8.8-106.6z"/>
		<path class="st2" d="M55.7,61.9c-7,7-15.1,7-23.3,6.9c-12.6-0.1-25.3-0.1-37.9,0c-11.6,0-19.5,7.3-19.6,18
			c-0.1,10.6,7.9,18.2,19.4,18.3c7.6,0.1,15.3,0,22.9,0C42.4,105.1,57.8,88.4,55.7,61.9z"/>
		<path class="st1" d="M-33,88.1c3-0.3,5-1.8,5.1-4.9s-1.6-5.1-4.8-5.2c-3.2-0.1-5.1,1.8-5.2,4.8S-36.1,87.6-33,88.1z"/>
	</g>
</symbol>
<use xlink:href="#logo"  width="600.2" height="396.2" x="-300.1" y="-198.1" transform="matrix(1 0 0 -1 79.592 127.9)" style="overflow:visible;"/>
</svg>
