<?xml version="1.0" encoding="utf-8"?>
<!-- Generator: Adobe Illustrator 22.1.0, SVG Export Plug-In . SVG Version: 6.00 Build 0)  -->
<svg version="1.1" id="Calque_1" xmlns="http://www.w3.org/2000/svg" xmlns:xlink="http://www.w3.org/1999/xlink" x="0px" y="0px"
	 viewBox="0 0 612 792" style="enable-background:new 0 0 612 792;" xml:space="preserve">
<style type="text/css">
	.st0{fill:none;}
	.st1{fill:#242122;}
	.st2{fill:#F05B26;}
</style>
<g>
	<path class="st0" d="M306.7,595c-98.5,0-197,0-295.5,0.1c-3.8,0-4.3-1-4.3-4.4C7,461.5,7,332.3,6.9,203.2c0-3.8,1-4.3,4.4-4.3
		c197.2,0.1,394.3,0.1,591.5,0c3.8,0,4.3,1,4.3,4.4c-0.1,129.2-0.1,258.3,0,387.5c0,3.8-1,4.3-4.4,4.3C504,595,405.3,595,306.7,595z
		 M274.1,300.5c-1.7-0.9-2.5,0.3-3.4,0.9c-5.9,4.1-10.1,9.8-12.7,16.4c-10.5,26.8-6.5,52.3,8,76.5c4.8,8,11.4,14.4,19.6,18.9
		c12.2,6.8,24.8,8.8,37.5,1.4c2.8-1.6,4.2-1.1,6.4,0.6c8.7,6.8,18.3,12.2,28.6,16.1c5.2,1.9,5.4,1.9,4.7-3.4
		c-4.9-41-25.9-70.9-62.5-89.9c-2.4-1.2-3.4-1.8-3.9,1.8c-1.5,10.2-10,16.9-19.5,16.1c-9.7-0.8-16.9-8.6-16.9-18.9
		C259.8,322.9,263.2,310.3,274.1,300.5z M315.8,503.6c22.1-7.1,33-28.9,24.6-48.9c-4.2-10-9.1-19.6-13.6-29.4
		c-1.1-2.4-2.2-2.2-4.2-1.3c-7,3.2-14.5,4.1-22,2.8c-4.2-0.7-4.6,0.7-4.5,4.3c0.2,11.3,0.1,22.6,0.1,34c0,4.6,0.6,9.3-3,13.6
		c5.4,0.7,9.8-0.4,13.7-3.2c1.3-0.9,2.2-1.9,3.3,0.5C314.2,484.8,319.9,493.1,315.8,503.6z M362.7,335.1c2-26.4-13.3-43.1-38.4-43.2
		c-7.6,0-15.3-0.1-22.9,0c-11.5,0.1-19.5,7.7-19.4,18.3c0.1,10.7,8,18,19.6,18c12.6,0,25.3,0.1,37.9,0
		C347.7,328,355.8,328.1,362.7,335.1z M274,308.9c-3.2,0.5-5,2.2-4.9,5.3c0.1,3,2,4.9,5.2,4.8c3.2-0.1,4.9-2.1,4.8-5.2
		C279.1,310.7,277,309.2,274,308.9z"/>
	<path class="st1" d="M274.1,300.5c-10.8,9.8-14.3,22.5-14.2,36.4c0.1,10.3,7.2,18.1,16.9,18.9c9.6,0.8,18.1-5.9,19.5-16.1
		c0.5-3.7,1.6-3.1,3.9-1.8c36.6,19,57.5,48.9,62.5,89.9c0.6,5.3,0.5,5.4-4.7,3.4c-10.4-3.9-19.9-9.2-28.6-16.1
		c-2.2-1.7-3.6-2.2-6.4-0.6c-12.7,7.4-25.3,5.4-37.5-1.4c-8.2-4.5-14.8-10.9-19.6-18.9c-14.5-24.2-18.5-49.7-8-76.5
		c2.6-6.6,6.7-12.2,12.7-16.4C271.6,300.7,272.3,299.6,274.1,300.5z"/>
	<path class="st1" d="M315.8,503.6c4.1-10.6-1.6-18.9-5.5-27.6c-1-2.4-2-1.4-3.3-0.5c-3.9,2.8-8.3,3.9-13.7,3.2c3.5-4.3,3-9,3-13.6
		c0-11.3,0.1-22.6-0.1-34c-0.1-3.6,0.4-5,4.5-4.3c7.5,1.3,15,0.4,22-2.8c2-0.9,3.1-1.2,4.2,1.3c4.4,9.9,9.4,19.5,13.6,29.4
		C348.8,474.8,337.9,496.5,315.8,503.6z"/>
	<path class="st2" d="M362.7,335.1c-7-7-15.1-7-23.3-6.9c-12.6,0.1-25.3,0.1-37.9,0c-11.6,0-19.5-7.3-19.6-18
		c-0.1-10.6,7.9-18.2,19.4-18.3c7.6-0.1,15.3,0,22.9,0C349.4,291.9,364.8,308.6,362.7,335.1z"/>
	<path class="st1" d="M274,308.9c3,0.3,5,1.8,5.1,4.9c0.1,3.1-1.6,5.1-4.8,5.2c-3.2,0.1-5.1-1.8-5.2-4.8
		C269,311.2,270.9,309.4,274,308.9z"/>
</g>
</svg>
